<svg width="42.000000" height="40.000000" viewBox="0 0 42 40" fill="none" xmlns="http://www.w3.org/2000/svg" xmlns:xlink="http://www.w3.org/1999/xlink">
	<desc>
			Created with Pixso.
	</desc>
	<defs>
		<clipPath id="clip5_6">
			<rect id="Круговая двойная стрелка вниз" width="42.000000" height="40.000000" fill="white" fill-opacity="0"/>
		</clipPath>
	</defs>
	<g clip-path="url(#clip5_6)">
		<path id="path" d="M21 36.66C30.66 36.66 38.5 29.2 38.5 20C38.5 10.79 30.66 3.33 21 3.33C11.33 3.33 3.5 10.79 3.5 20C3.5 29.2 11.33 36.66 21 36.66Z" fill="#000000" fill-opacity="0" fill-rule="nonzero"/>
		<path id="path" d="M38.5 20C38.5 10.79 30.66 3.33 21 3.33C11.33 3.33 3.5 10.79 3.5 20C3.5 29.2 11.33 36.66 21 36.66C30.66 36.66 38.5 29.2 38.5 20Z" stroke="#000000" stroke-opacity="1.000000" stroke-width="1.500000" stroke-linejoin="round"/>
		<path id="path" d="M26.6 13.65L26.6 13.62C26.91 13.33 27.37 13.34 27.66 13.64C27.95 13.95 27.94 14.42 27.64 14.71L27.61 14.7L26.6 13.65ZM14.38 14.7L14.35 14.71C14.05 14.42 14.04 13.95 14.33 13.64C14.62 13.34 15.08 13.33 15.39 13.62L15.39 13.65L14.38 14.7Z" fill="#000000" fill-opacity="0" fill-rule="nonzero"/>
		<path id="path" d="M27.12 14.16L21 20L14.87 14.16" stroke="#000000" stroke-opacity="1.000000" stroke-width="1.500000" stroke-linejoin="round" stroke-linecap="round"/>
		<path id="path" d="M26.6 21.15L26.6 21.12C26.91 20.83 27.37 20.84 27.66 21.14C27.95 21.45 27.94 21.92 27.64 22.21L27.61 22.2L26.6 21.15ZM14.38 22.2L14.35 22.21C14.05 21.92 14.04 21.45 14.33 21.14C14.62 20.84 15.08 20.83 15.39 21.12L15.39 21.15L14.38 22.2Z" fill="#000000" fill-opacity="0" fill-rule="nonzero"/>
		<path id="path" d="M27.12 21.66L21 27.5L14.87 21.66" stroke="#000000" stroke-opacity="1.000000" stroke-width="1.500000" stroke-linejoin="round" stroke-linecap="round"/>
	</g>
</svg>
